<svg width="32" height="32" viewBox="0 0 32 32" fill="none" xmlns="http://www.w3.org/2000/svg">
<circle cx="16" cy="16" r="16" fill="#192233"/>
<path d="M23.7682 9.33005C22.4382 8.71005 20.9982 8.26005 19.4982 8.00005C19.485 7.99963 19.4719 8.00209 19.4598 8.00728C19.4477 8.01246 19.4369 8.02023 19.4282 8.03005C19.2482 8.36005 19.0382 8.79005 18.8982 9.12005C17.3072 8.88005 15.6892 8.88005 14.0982 9.12005C13.9582 8.78005 13.7482 8.36005 13.5582 8.03005C13.5482 8.01005 13.5182 8.00005 13.4882 8.00005C11.9882 8.26005 10.5582 8.71005 9.21816 9.33005C9.20816 9.33005 9.19816 9.34005 9.18816 9.35005C6.46816 13.42 5.71816 17.38 6.08816 21.3C6.08816 21.32 6.09816 21.34 6.11816 21.35C7.91816 22.67 9.64816 23.47 11.3582 24C11.3882 24.01 11.4182 24 11.4282 23.98C11.8282 23.43 12.1882 22.85 12.4982 22.24C12.5182 22.2 12.4982 22.16 12.4582 22.15C11.8882 21.93 11.3482 21.67 10.8182 21.37C10.7782 21.35 10.7782 21.29 10.8082 21.26C10.9182 21.18 11.0282 21.09 11.1382 21.01C11.1582 20.99 11.1882 20.99 11.2082 21C14.6482 22.57 18.3582 22.57 21.7582 21C21.7782 20.99 21.8082 20.99 21.8282 21.01C21.9382 21.1 22.0482 21.18 22.1582 21.27C22.1982 21.3 22.1982 21.36 22.1482 21.38C21.6282 21.69 21.0782 21.94 20.5082 22.16C20.4682 22.17 20.4582 22.22 20.4682 22.25C20.7882 22.86 21.1482 23.44 21.5382 23.99C21.5682 24 21.5982 24.01 21.6282 24C23.3482 23.47 25.0782 22.67 26.8782 21.35C26.8982 21.34 26.9082 21.32 26.9082 21.3C27.3482 16.77 26.1782 12.84 23.8082 9.35005C23.7982 9.34005 23.7882 9.33005 23.7682 9.33005ZM13.0182 18.91C11.9882 18.91 11.1282 17.96 11.1282 16.79C11.1282 15.62 11.9682 14.67 13.0182 14.67C14.0782 14.67 14.9182 15.63 14.9082 16.79C14.9082 17.96 14.0682 18.91 13.0182 18.91ZM19.9882 18.91C18.9582 18.91 18.0982 17.96 18.0982 16.79C18.0982 15.62 18.9382 14.67 19.9882 14.67C21.0482 14.67 21.8882 15.63 21.8782 16.79C21.8782 17.96 21.0482 18.91 19.9882 18.91Z" fill="#CEAD50"/>
</svg>
