<svg width="129" height="48" viewBox="0 0 129 48" fill="none" xmlns="http://www.w3.org/2000/svg">
<path d="M11.7181 23.4684V4.26698L19.8308 0V18.6325L11.7181 23.4684Z" fill="#CEAD50"/>
<path d="M11.7181 47.6271V28.4257L19.8308 24.1587V42.7912L11.7181 47.6271Z" fill="#CEAD50"/>
<path d="M23.4366 34.5124V15.76L32 11.3892V29.7186L23.4366 34.5124Z" fill="#CEAD50"/>
<path d="M0 39.344V19.951L8.11264 15.5305V34.6384L0 39.344Z" fill="#CEAD50"/>
<rect x="37" width="2" height="48" fill="#B78352"/>
<path d="M57.26 10.8V25H55V18.74H47.84V25H45.6V10.8H47.84V16.74H55V10.8H57.26ZM61.3061 21.94C61.3061 21.2733 61.4928 20.6933 61.8661 20.2C62.2528 19.6933 62.7794 19.3067 63.4461 19.04C64.1128 18.76 64.8861 18.62 65.7661 18.62C66.2328 18.62 66.7061 18.6533 67.1861 18.72C67.6794 18.7867 68.1128 18.8933 68.4861 19.04V18.38C68.4861 17.6467 68.2661 17.0733 67.8261 16.66C67.3861 16.2467 66.7528 16.04 65.9261 16.04C65.3394 16.04 64.7861 16.1467 64.2661 16.36C63.7461 16.56 63.1928 16.8467 62.6061 17.22L61.8661 15.74C62.5594 15.2733 63.2528 14.9267 63.9461 14.7C64.6528 14.4733 65.3928 14.36 66.1661 14.36C67.5661 14.36 68.6661 14.7333 69.4661 15.48C70.2794 16.2133 70.6861 17.26 70.6861 18.62V22.52C70.6861 22.7733 70.7261 22.9533 70.8061 23.06C70.8994 23.1667 71.0528 23.2267 71.2661 23.24V25C71.0661 25.04 70.8861 25.0667 70.7261 25.08C70.5661 25.0933 70.4328 25.1 70.3261 25.1C69.8594 25.1 69.5061 24.9867 69.2661 24.76C69.0261 24.5333 68.8861 24.2667 68.8461 23.96L68.7861 23.36C68.3328 23.9467 67.7528 24.4 67.0461 24.72C66.3394 25.04 65.6261 25.2 64.9061 25.2C64.2128 25.2 63.5928 25.06 63.0461 24.78C62.4994 24.4867 62.0728 24.0933 61.7661 23.6C61.4594 23.1067 61.3061 22.5533 61.3061 21.94ZM67.9661 22.58C68.1261 22.4067 68.2528 22.2333 68.3461 22.06C68.4394 21.8867 68.4861 21.7333 68.4861 21.6V20.4C68.1128 20.2533 67.7194 20.1467 67.3061 20.08C66.8928 20 66.4861 19.96 66.0861 19.96C65.2861 19.96 64.6328 20.12 64.1261 20.44C63.6328 20.76 63.3861 21.2 63.3861 21.76C63.3861 22.0667 63.4661 22.36 63.6261 22.64C63.7994 22.92 64.0394 23.1467 64.3461 23.32C64.6661 23.4933 65.0594 23.58 65.5261 23.58C66.0061 23.58 66.4661 23.4867 66.9061 23.3C67.3461 23.1133 67.6994 22.8733 67.9661 22.58ZM75.3752 10.4H77.5752V21.98C77.5752 22.5133 77.6552 22.8533 77.8152 23C77.9752 23.1467 78.1752 23.22 78.4152 23.22C78.6818 23.22 78.9285 23.1933 79.1552 23.14C79.3952 23.0867 79.6018 23.02 79.7752 22.94L80.0952 24.68C79.7752 24.8133 79.3952 24.9267 78.9552 25.02C78.5152 25.1133 78.1218 25.16 77.7752 25.16C77.0285 25.16 76.4418 24.9533 76.0152 24.54C75.5885 24.1133 75.3752 23.5267 75.3752 22.78V10.4ZM82.6108 21.94C82.6108 21.2733 82.7974 20.6933 83.1708 20.2C83.5574 19.6933 84.0841 19.3067 84.7508 19.04C85.4174 18.76 86.1908 18.62 87.0708 18.62C87.5374 18.62 88.0108 18.6533 88.4908 18.72C88.9841 18.7867 89.4174 18.8933 89.7908 19.04V18.38C89.7908 17.6467 89.5708 17.0733 89.1308 16.66C88.6908 16.2467 88.0574 16.04 87.2308 16.04C86.6441 16.04 86.0908 16.1467 85.5708 16.36C85.0508 16.56 84.4974 16.8467 83.9108 17.22L83.1708 15.74C83.8641 15.2733 84.5574 14.9267 85.2508 14.7C85.9574 14.4733 86.6974 14.36 87.4708 14.36C88.8708 14.36 89.9708 14.7333 90.7708 15.48C91.5841 16.2133 91.9908 17.26 91.9908 18.62V22.52C91.9908 22.7733 92.0308 22.9533 92.1108 23.06C92.2041 23.1667 92.3574 23.2267 92.5708 23.24V25C92.3708 25.04 92.1908 25.0667 92.0308 25.08C91.8708 25.0933 91.7374 25.1 91.6308 25.1C91.1641 25.1 90.8108 24.9867 90.5708 24.76C90.3308 24.5333 90.1908 24.2667 90.1508 23.96L90.0908 23.36C89.6374 23.9467 89.0574 24.4 88.3508 24.72C87.6441 25.04 86.9308 25.2 86.2108 25.2C85.5174 25.2 84.8974 25.06 84.3508 24.78C83.8041 24.4867 83.3774 24.0933 83.0708 23.6C82.7641 23.1067 82.6108 22.5533 82.6108 21.94ZM89.2708 22.58C89.4308 22.4067 89.5574 22.2333 89.6508 22.06C89.7441 21.8867 89.7908 21.7333 89.7908 21.6V20.4C89.4174 20.2533 89.0241 20.1467 88.6108 20.08C88.1974 20 87.7908 19.96 87.3908 19.96C86.5908 19.96 85.9374 20.12 85.4308 20.44C84.9374 20.76 84.6908 21.2 84.6908 21.76C84.6908 22.0667 84.7708 22.36 84.9308 22.64C85.1041 22.92 85.3441 23.1467 85.6508 23.32C85.9708 23.4933 86.3641 23.58 86.8308 23.58C87.3108 23.58 87.7708 23.4867 88.2108 23.3C88.6508 23.1133 89.0041 22.8733 89.2708 22.58Z" fill="#C18D5B"/>
<path d="M45.2 40V29.35H46.88V38.515H52.595V40H45.2ZM57.2169 40.15C56.6069 40.15 56.0519 40.045 55.5519 39.835C55.0619 39.615 54.6369 39.32 54.2769 38.95C53.9169 38.57 53.6369 38.14 53.4369 37.66C53.2469 37.17 53.1519 36.65 53.1519 36.1C53.1519 35.36 53.3219 34.685 53.6619 34.075C54.0019 33.455 54.4769 32.96 55.0869 32.59C55.6969 32.21 56.4119 32.02 57.2319 32.02C58.0519 32.02 58.7569 32.21 59.3469 32.59C59.9469 32.96 60.4119 33.45 60.7419 34.06C61.0719 34.67 61.2369 35.325 61.2369 36.025C61.2369 36.145 61.2319 36.26 61.2219 36.37C61.2119 36.47 61.2019 36.555 61.1919 36.625H54.9069C54.9369 37.085 55.0619 37.49 55.2819 37.84C55.5119 38.18 55.8019 38.45 56.1519 38.65C56.5019 38.84 56.8769 38.935 57.2769 38.935C57.7169 38.935 58.1319 38.825 58.5219 38.605C58.9219 38.385 59.1919 38.095 59.3319 37.735L60.7419 38.14C60.5719 38.52 60.3119 38.865 59.9619 39.175C59.6219 39.475 59.2169 39.715 58.7469 39.895C58.2769 40.065 57.7669 40.15 57.2169 40.15ZM54.8619 35.53H59.6019C59.5719 35.08 59.4419 34.685 59.2119 34.345C58.9919 33.995 58.7069 33.725 58.3569 33.535C58.0169 33.335 57.6369 33.235 57.2169 33.235C56.8069 33.235 56.4269 33.335 56.0769 33.535C55.7369 33.725 55.4569 33.995 55.2369 34.345C55.0169 34.685 54.8919 35.08 54.8619 35.53ZM69.6178 40H67.9678V35.605C67.9678 34.875 67.8478 34.34 67.6078 34C67.3778 33.66 67.0328 33.49 66.5728 33.49C66.2528 33.49 65.9328 33.57 65.6128 33.73C65.3028 33.89 65.0228 34.11 64.7728 34.39C64.5228 34.66 64.3428 34.975 64.2328 35.335V40H62.5828V32.155H64.0828V33.73C64.2828 33.38 64.5428 33.08 64.8628 32.83C65.1928 32.57 65.5628 32.37 65.9728 32.23C66.3828 32.09 66.8178 32.02 67.2778 32.02C67.7478 32.02 68.1328 32.105 68.4328 32.275C68.7428 32.445 68.9828 32.68 69.1528 32.98C69.3328 33.27 69.4528 33.61 69.5128 34C69.5828 34.38 69.6178 34.785 69.6178 35.215V40ZM71.038 36.085C71.038 35.335 71.188 34.655 71.488 34.045C71.798 33.425 72.218 32.935 72.748 32.575C73.278 32.205 73.888 32.02 74.578 32.02C75.178 32.02 75.718 32.175 76.198 32.485C76.688 32.795 77.068 33.18 77.338 33.64V29.05H78.988V38.14C78.988 38.33 79.023 38.465 79.093 38.545C79.163 38.625 79.278 38.67 79.438 38.68V40C79.128 40.05 78.888 40.075 78.718 40.075C78.408 40.075 78.143 39.985 77.923 39.805C77.713 39.625 77.603 39.41 77.593 39.16L77.578 38.575C77.278 39.075 76.873 39.465 76.363 39.745C75.853 40.015 75.323 40.15 74.773 40.15C74.233 40.15 73.733 40.045 73.273 39.835C72.823 39.625 72.428 39.33 72.088 38.95C71.758 38.57 71.498 38.135 71.308 37.645C71.128 37.155 71.038 36.635 71.038 36.085ZM77.338 37.18V35.125C77.228 34.805 77.048 34.52 76.798 34.27C76.558 34.01 76.283 33.805 75.973 33.655C75.673 33.505 75.373 33.43 75.073 33.43C74.723 33.43 74.403 33.505 74.113 33.655C73.833 33.805 73.588 34.005 73.378 34.255C73.178 34.505 73.023 34.79 72.913 35.11C72.803 35.43 72.748 35.765 72.748 36.115C72.748 36.475 72.808 36.815 72.928 37.135C73.048 37.445 73.218 37.725 73.438 37.975C73.668 38.215 73.928 38.405 74.218 38.545C74.518 38.675 74.843 38.74 75.193 38.74C75.413 38.74 75.633 38.7 75.853 38.62C76.083 38.54 76.298 38.43 76.498 38.29C76.708 38.15 76.883 37.985 77.023 37.795C77.173 37.605 77.278 37.4 77.338 37.18Z" fill="#C18D5B"/>
</svg>
